<svg width="42" height="42" viewBox="0 0 42 42" fill="none" xmlns="http://www.w3.org/2000/svg">
<path d="M35.6701 0.6875H6.32986C4.83396 0.689292 3.39985 1.28433 2.34209 2.34209C1.28433 3.39985 0.689292 4.83396 0.6875 6.32986V35.6701C0.689053 37.1661 1.28401 38.6004 2.34182 39.6582C3.39964 40.716 4.83389 41.3109 6.32986 41.3125H35.6701C37.1661 41.3109 38.6004 40.716 39.6582 39.6582C40.716 38.6004 41.3109 37.1661 41.3125 35.6701V6.32986C41.3107 4.83396 40.7157 3.39985 39.6579 2.34209C38.6002 1.28433 37.166 0.689292 35.6701 0.6875ZM25.5139 2.94444V14.2292H16.4861V2.94444H25.5139ZM39.0556 35.6701C39.0545 36.5677 38.6975 37.4282 38.0629 38.0629C37.4282 38.6975 36.5677 39.0545 35.6701 39.0556H6.32986C5.4323 39.0545 4.5718 38.6975 3.93713 38.0629C3.30246 37.4282 2.94546 36.5677 2.94444 35.6701V6.32986C2.94546 5.4323 3.30246 4.5718 3.93713 3.93713C4.5718 3.30246 5.4323 2.94546 6.32986 2.94444H14.2292V15.3576C14.2292 15.6569 14.3481 15.944 14.5597 16.1556C14.7713 16.3672 15.0583 16.4861 15.3576 16.4861H26.6424C26.9417 16.4861 27.2287 16.3672 27.4403 16.1556C27.6519 15.944 27.7708 15.6569 27.7708 15.3576V2.94444H35.6701C36.5677 2.94546 37.4282 3.30246 38.0629 3.93713C38.6975 4.5718 39.0545 5.4323 39.0556 6.32986V35.6701Z" fill="#535C69"/>
</svg>
