<svg width="23" height="17" viewBox="0 0 23 17" fill="none" xmlns="http://www.w3.org/2000/svg">
<path fill-rule="evenodd" clip-rule="evenodd" d="M0 8.5C0 7.7176 0.634263 7.08333 1.41667 7.08333H21.25C22.0324 7.08333 22.6667 7.7176 22.6667 8.5C22.6667 9.2824 22.0324 9.91667 21.25 9.91667H1.41667C0.634263 9.91667 0 9.2824 0 8.5ZM5.66667 1.41667C5.66667 0.634264 6.30093 0 7.08333 0H21.25C22.0324 0 22.6667 0.634264 22.6667 1.41667C22.6667 2.19907 22.0324 2.83333 21.25 2.83333H7.08333C6.30093 2.83333 5.66667 2.19907 5.66667 1.41667ZM11.3333 15.5833C11.3333 14.8009 11.9676 14.1667 12.75 14.1667H21.25C22.0324 14.1667 22.6667 14.8009 22.6667 15.5833C22.6667 16.3657 22.0324 17 21.25 17H12.75C11.9676 17 11.3333 16.3657 11.3333 15.5833Z" fill="#535C69"/>
</svg>
