<svg width="21" height="30" viewBox="0 0 21 30" fill="none" xmlns="http://www.w3.org/2000/svg">
<g clip-path="url(#clip0_209_2056)">
<path d="M10.6025 9.50341C10.388 9.28141 10.031 9.28141 9.809 9.50341C9.5945 9.71791 9.5945 10.0749 9.809 10.2889L13.8325 14.3124H0.5555C0.246 14.3129 0 14.5589 0 14.8684C0 15.1779 0.246 15.4319 0.5555 15.4319H13.8325L9.809 19.4479C9.5945 19.6699 9.5945 20.0274 9.809 20.2414C10.031 20.4634 10.3885 20.4634 10.6025 20.2414L15.5785 15.2654C15.8005 15.0509 15.8005 14.6939 15.5785 14.4799L10.6025 9.50341Z" fill="white"/>
</g>
<rect x="7.5" y="0.5" width="12.5" height="29" stroke="white" stroke-opacity="0.3"/>
<defs>
<clipPath id="clip0_209_2056">
<rect width="15.745" height="15.745" fill="white" transform="translate(0 7)"/>
</clipPath>
</defs>
</svg>
