<svg width="20" height="20" viewBox="0 0 20 20" fill="none" xmlns="http://www.w3.org/2000/svg">
<g clip-path="url(#clip0_209_1310)">
<path d="M10 14.1667C9.655 14.1667 9.375 13.8867 9.375 13.5417V0.625C9.375 0.279999 9.655 0 10 0C10.345 0 10.625 0.279999 10.625 0.625V13.5417C10.625 13.8867 10.345 14.1667 10 14.1667Z" fill="#535C69"/>
<path d="M10 14.1666C9.83994 14.1666 9.68002 14.1057 9.55826 13.9832L6.22498 10.6499C5.98083 10.4057 5.98083 10.0099 6.22498 9.76562C6.46912 9.52148 6.86493 9.52148 7.10922 9.76562L10.0008 12.6573L12.8925 9.76562C13.1366 9.52148 13.5326 9.52148 13.7767 9.76562C14.0208 10.0099 14.0208 10.4057 13.7767 10.6499L10.4433 13.9832C10.32 14.1057 10.1601 14.1666 10 14.1666Z" fill="#535C69"/>
<path d="M17.7083 20.0002H2.29172C1.02753 20.0002 0 18.9727 0 17.7085V13.9585C0 13.6135 0.279999 13.3335 0.625 13.3335C0.970001 13.3335 1.25 13.6135 1.25 13.9585V17.7085C1.25 18.2827 1.71753 18.7502 2.29172 18.7502H17.7083C18.2825 18.7502 18.75 18.2827 18.75 17.7085V13.9585C18.75 13.6135 19.03 13.3335 19.375 13.3335C19.72 13.3335 20 13.6135 20 13.9585V17.7085C20 18.9727 18.9725 20.0002 17.7083 20.0002Z" fill="#535C69"/>
</g>
<defs>
<clipPath id="clip0_209_1310">
<rect width="20" height="20" fill="white"/>
</clipPath>
</defs>
</svg>
