<svg width="24" height="24" viewBox="0 0 24 24" fill="none" xmlns="http://www.w3.org/2000/svg">
<path d="M6.77024 20.7139L19.977 7.50719L16.493 4.02344L3.28611 17.2302C3.21524 17.2868 3.1603 17.3644 3.13555 17.4589L2.1088 21.3595C2.10692 21.367 2.10692 21.3749 2.10524 21.3822C2.10186 21.3976 2.0998 21.4126 2.09792 21.4285C2.09661 21.4426 2.09624 21.4561 2.09624 21.4701C2.09605 21.4846 2.09642 21.4977 2.09792 21.5123C2.0998 21.5281 2.10186 21.5434 2.10524 21.5584C2.10674 21.5659 2.10674 21.5738 2.1088 21.5811C2.11011 21.5866 2.11274 21.5914 2.11461 21.5967C2.11892 21.6113 2.12455 21.6256 2.13074 21.6398C2.13617 21.6524 2.14142 21.6649 2.14761 21.6766C2.15455 21.6889 2.16205 21.7004 2.1703 21.712C2.17799 21.7238 2.18586 21.7356 2.19467 21.7465C2.20349 21.7576 2.21342 21.7669 2.22317 21.7769C2.23311 21.787 2.24286 21.7966 2.25374 21.8054C2.26424 21.8144 2.27605 21.8223 2.28786 21.8299C2.29967 21.838 2.31111 21.8457 2.32386 21.8524C2.33549 21.8586 2.34786 21.8641 2.36042 21.8693C2.37467 21.8755 2.38874 21.8811 2.40355 21.8856C2.4088 21.8873 2.41367 21.8899 2.41911 21.8914C2.42661 21.8933 2.4343 21.8933 2.4418 21.8952C2.45699 21.8984 2.47217 21.9004 2.48792 21.9021C2.50236 21.9038 2.51567 21.9042 2.52992 21.904C2.54399 21.904 2.55749 21.9038 2.57174 21.9025C2.58749 21.9004 2.60286 21.8984 2.61805 21.8952C2.62555 21.8933 2.63342 21.8933 2.64074 21.8914L6.54149 20.8649C6.63617 20.8401 6.71399 20.7852 6.77024 20.7139ZM3.68455 20.3157C3.58424 20.2154 3.44699 20.1758 3.3163 20.194L3.91311 17.9264L6.07424 20.0873L3.80624 20.6839C3.82461 20.5533 3.78524 20.416 3.68455 20.3157Z" fill="#535C69"/>
<path d="M20.5691 6.91506L17.0854 3.43112L18.4198 2.09668C18.4198 2.09668 20.7928 2.94305 21.9036 5.58081L20.5691 6.91506Z" fill="#535C69"/>
</svg>
