<svg width="24" height="24" viewBox="0 0 24 24" fill="none" xmlns="http://www.w3.org/2000/svg">
<path fill-rule="evenodd" clip-rule="evenodd" d="M19.2 1.6001C20.0837 1.6001 20.8 2.31645 20.8 3.2001V20.8001C20.8 21.6838 20.0837 22.4001 19.2 22.4001H7.20005C6.75829 22.4001 6.40005 22.0419 6.40005 21.6001C6.40005 21.1583 6.75829 20.8001 7.20005 20.8001H19.2V3.2001H7.20005C6.75829 3.2001 6.40005 2.84192 6.40005 2.4001C6.40005 1.95827 6.75829 1.6001 7.20005 1.6001H19.2ZM3.83429 7.83442C4.14677 7.52199 4.65333 7.52199 4.96581 7.83442C5.27813 8.14683 5.27813 8.65336 4.96581 8.96578L2.73141 11.2001H13.6C14.0419 11.2001 14.4 11.5583 14.4 12.0001C14.4 12.4419 14.0419 12.8001 13.6 12.8001H2.73141L4.96581 15.0344C5.27813 15.3468 5.27813 15.8534 4.96581 16.1659C4.65333 16.4782 4.14677 16.4782 3.83429 16.1659L0.234291 12.5658C-0.0780296 12.2534 -0.0780296 11.7468 0.234291 11.4344L3.83429 7.83442Z" fill="#535C69"/>
</svg>
