<svg width="24" height="24" viewBox="0 0 24 24" fill="none" xmlns="http://www.w3.org/2000/svg">
<g clip-path="url(#clip0_209_799)">
<path d="M23 0H12C11.448 0 11 0.447984 11 0.999984V3.49097L9.76001 2.22895C9.38402 1.84594 8.70902 1.84697 8.33299 2.22895L0.286994 10.416C-0.0970058 10.806 -0.0949902 11.432 0.28901 11.821L12.048 23.704C12.235 23.893 12.474 23.965 12.759 24C13.023 24 13.277 23.895 13.465 23.708L15.179 22H23C23.552 22 24 21.552 24 21V0.999984C24 0.447984 23.552 0 23 0ZM5.99998 12C5.74399 12 5.48796 11.902 5.29296 11.707C4.90198 11.316 4.90198 10.684 5.29296 10.293L8.29296 7.293C8.68395 6.90202 9.31596 6.90202 9.70695 7.293C10.0979 7.68398 10.0979 8.316 9.70695 8.70698L6.70695 11.707C6.51199 11.902 6.25596 12 5.99998 12ZM8.99998 15C8.74399 15 8.48796 14.902 8.29296 14.707C7.90198 14.316 7.90198 13.684 8.29296 13.293L11.293 10.293C11.6839 9.90202 12.316 9.90202 12.7069 10.293C13.0979 10.684 13.0979 11.316 12.7069 11.707L9.70695 14.707C9.51199 14.902 9.25596 15 8.99998 15ZM15.707 14.707L12.707 17.707C12.512 17.902 12.256 18 12 18C11.744 18 11.488 17.902 11.293 17.707C10.902 17.316 10.902 16.684 11.293 16.293L14.293 13.293C14.6839 12.902 15.316 12.902 15.7069 13.293C16.098 13.684 16.098 14.316 15.707 14.707ZM22 20H17.3539L21.5419 15.659L21.5539 15.647L21.5549 15.645L21.5669 15.632C21.6119 15.586 21.6329 15.529 21.6669 15.477C21.7039 15.421 21.7509 15.37 21.7749 15.309C21.7989 15.248 21.8009 15.184 21.8129 15.12C21.8239 15.059 21.8469 14.999 21.8459 14.937C21.8459 14.865 21.8219 14.796 21.8069 14.725C21.7949 14.672 21.7959 14.617 21.7749 14.565C21.7309 14.456 21.6619 14.356 21.5789 14.265C21.5709 14.257 21.5689 14.246 21.5609 14.238L21.5599 14.237L21.559 14.234L21.433 14.107L13 5.526V2.00002H22V20Z" fill="#535C69"/>
</g>
<defs>
<clipPath id="clip0_209_799">
<rect width="24" height="24" fill="white"/>
</clipPath>
</defs>
</svg>
