<svg width="30" height="30" viewBox="0 0 30 30" fill="none" xmlns="http://www.w3.org/2000/svg">
<path d="M1.875 6.5625V23.4375H28.125V6.5625H1.875ZM3.75 8.4375H26.25V21.5625H3.75V8.4375ZM5.625 10.3125V12.1875H15V10.3125H5.625ZM18.75 10.3125V15H24.375V10.3125H18.75ZM5.625 13.125V15H12.1875V13.125H5.625ZM7.96875 15.9375C7.40156 15.9375 7.00266 16.2602 6.73828 16.5527C6.47484 16.8462 6.28055 17.1717 6.12305 17.5195C5.80805 18.2198 5.625 18.9731 5.625 19.6875H7.5C7.5 19.3875 7.64625 18.735 7.85156 18.2812C7.90969 18.1491 7.96922 18.1048 8.02734 18.0176C8.09672 18.1132 8.14805 18.1746 8.23242 18.3105C8.36836 18.5299 8.51836 18.7945 8.70117 19.043C8.88398 19.2923 9.10758 19.7018 9.81445 19.7168C10.3713 19.728 10.5427 19.5267 10.7227 19.3945C10.9017 19.2623 11.0262 19.1384 11.1621 19.0137C11.254 18.9293 11.3271 18.8677 11.3965 18.8086C11.4218 18.8452 11.5263 18.9068 12.0428 19.1309C12.6682 19.4046 13.6153 19.6875 15 19.6875V17.8125C13.8469 17.8125 13.2462 17.6257 12.8027 17.4316C12.3593 17.2376 12.0225 16.875 11.25 16.875C10.6856 16.875 10.5436 17.0944 10.3711 17.2266C10.2173 17.3438 10.1112 17.4684 9.99023 17.5781C9.93492 17.49 9.90938 17.4459 9.84375 17.3438C9.68625 17.0878 9.49945 16.7981 9.22852 16.5234C8.95758 16.2487 8.52938 15.9375 7.96875 15.9375ZM18.75 17.8125V19.6875H24.375V17.8125H18.75Z" fill="#535C69"/>
</svg>
