<svg width="24" height="24" viewBox="0 0 24 24" fill="none" xmlns="http://www.w3.org/2000/svg">
<path d="M18.5 3H5.5C4.8372 3.00079 4.20178 3.26444 3.73311 3.73311C3.26444 4.20178 3.00079 4.8372 3 5.5V18.5C3.00069 19.1628 3.2643 19.7983 3.73299 20.267C4.20168 20.7357 4.83717 20.9993 5.5 21H18.5C19.1628 20.9993 19.7983 20.7357 20.267 20.267C20.7357 19.7983 20.9993 19.1628 21 18.5V5.5C20.9992 4.8372 20.7356 4.20178 20.2669 3.73311C19.7982 3.26444 19.1628 3.00079 18.5 3ZM14 4V9H10V4H14ZM20 18.5C19.9995 18.8977 19.8414 19.279 19.5602 19.5602C19.279 19.8414 18.8977 19.9995 18.5 20H5.5C5.10231 19.9995 4.72104 19.8414 4.43984 19.5602C4.15863 19.279 4.00045 18.8977 4 18.5V5.5C4.00045 5.10231 4.15863 4.72104 4.43984 4.43984C4.72104 4.15863 5.10231 4.00045 5.5 4H9V9.5C9 9.63261 9.05268 9.75979 9.14645 9.85355C9.24021 9.94732 9.36739 10 9.5 10H14.5C14.6326 10 14.7598 9.94732 14.8536 9.85355C14.9473 9.75979 15 9.63261 15 9.5V4H18.5C18.8977 4.00045 19.279 4.15863 19.5602 4.43984C19.8414 4.72104 19.9995 5.10231 20 5.5V18.5Z" fill="#535C69"/>
<path d="M19.0417 2.25H4.95833C4.2403 2.25086 3.55193 2.53648 3.0442 3.0442C2.53648 3.55193 2.25086 4.2403 2.25 4.95833V19.0417C2.25075 19.7597 2.53633 20.4482 3.04408 20.9559C3.55183 21.4637 4.24027 21.7493 4.95833 21.75H19.0417C19.7597 21.7493 20.4482 21.4637 20.9559 20.9559C21.4637 20.4482 21.7493 19.7597 21.75 19.0417V4.95833C21.7491 4.2403 21.4635 3.55193 20.9558 3.0442C20.4481 2.53648 19.7597 2.25086 19.0417 2.25ZM14.1667 3.33333V8.75H9.83333V3.33333H14.1667ZM20.6667 19.0417C20.6662 19.4725 20.4948 19.8855 20.1902 20.1902C19.8855 20.4948 19.4725 20.6662 19.0417 20.6667H4.95833C4.52751 20.6662 4.11446 20.4948 3.80982 20.1902C3.50518 19.8855 3.33382 19.4725 3.33333 19.0417V4.95833C3.33382 4.52751 3.50518 4.11446 3.80982 3.80982C4.11446 3.50518 4.52751 3.33382 4.95833 3.33333H8.75V9.29167C8.75 9.43533 8.80707 9.5731 8.90865 9.67468C9.01023 9.77627 9.14801 9.83333 9.29167 9.83333H14.7083C14.852 9.83333 14.9898 9.77627 15.0914 9.67468C15.1929 9.5731 15.25 9.43533 15.25 9.29167V3.33333H19.0417C19.4725 3.33382 19.8855 3.50518 20.1902 3.80982C20.4948 4.11446 20.6662 4.52751 20.6667 4.95833V19.0417Z" fill="#535C69"/>
</svg>
