<svg width="24" height="24" viewBox="0 0 24 24" fill="none" xmlns="http://www.w3.org/2000/svg">
<g clip-path="url(#clip0_209_836)">
<path fill-rule="evenodd" clip-rule="evenodd" d="M10.1581 1.02566C10.3623 0.413145 10.9355 0 11.5811 0H12.4189C13.0645 0 13.6377 0.413145 13.8419 1.02566L14.6301 3.39039C15.1875 3.56045 15.7218 3.78312 16.2275 4.05266L18.4577 2.9376C19.0352 2.64885 19.7325 2.76204 20.1891 3.21858L20.7814 3.81093C21.238 4.26747 21.3512 4.96493 21.0624 5.54241L19.9474 7.77255C20.2169 8.27817 20.4396 8.81254 20.6096 9.36987L22.9743 10.1581C23.5869 10.3623 24 10.9355 24 11.5811V12.4189C24 13.0645 23.5869 13.6377 22.9743 13.8419L20.6096 14.6301C20.4396 15.1875 20.2169 15.7218 19.9474 16.2275L21.0624 18.4577C21.3512 19.035 21.238 19.7325 20.7814 20.1891L20.1891 20.7814C19.7325 21.2379 19.0352 21.3512 18.4577 21.0624L16.2275 19.9473C15.7218 20.2169 15.1875 20.4396 14.6301 20.6096L13.8419 22.9743C13.6377 23.5869 13.0645 24 12.4189 24H11.5811C10.9355 24 10.3623 23.5869 10.1581 22.9743L9.36987 20.6096C8.81254 20.4396 8.27818 20.2169 7.77258 19.9474L5.54237 21.0625C4.96488 21.3513 4.26743 21.238 3.81088 20.7814L3.21852 20.1891C2.76198 19.7327 2.6488 19.0352 2.93754 18.4577L4.05264 16.2275C3.78312 15.7218 3.56045 15.1875 3.39039 14.6301L1.02566 13.8419C0.413145 13.6377 0 13.0645 0 12.4189V11.5811C0 10.9355 0.413145 10.3623 1.02566 10.1581L3.39039 9.36987C3.56045 8.81253 3.78312 8.27814 4.05264 7.77251L2.93755 5.54232C2.6488 4.96484 2.76199 4.26738 3.21853 3.81084L3.81088 3.21847C4.26743 2.76193 4.9649 2.64876 5.54237 2.93749L7.77258 4.05261C8.2782 3.78311 8.81256 3.56043 9.36987 3.39039L10.1581 1.02566ZM12 18C15.3137 18 18 15.3137 18 12C18 8.68629 15.3137 6 12 6C8.68629 6 6 8.68629 6 12C6 15.3137 8.68629 18 12 18Z" fill="#535C69"/>
</g>
<defs>
<clipPath id="clip0_209_836">
<rect width="24" height="24" fill="white"/>
</clipPath>
</defs>
</svg>
