<svg width="28" height="40" viewBox="0 0 28 40" fill="none" xmlns="http://www.w3.org/2000/svg">
<path d="M14.1367 12.6712C13.8507 12.3752 13.3747 12.3752 13.0787 12.6712C12.7927 12.9572 12.7927 13.4332 13.0787 13.7186L18.4433 19.0832H0.740667C0.328 19.0839 0 19.4119 0 19.8246C0 20.2372 0.328 20.5759 0.740667 20.5759H18.4433L13.0787 25.9306C12.7927 26.2266 12.7927 26.7032 13.0787 26.9886C13.3747 27.2846 13.8513 27.2846 14.1367 26.9886L20.7713 20.3539C21.0673 20.0679 21.0673 19.5919 20.7713 19.3066L14.1367 12.6712Z" fill="white"/>
<rect x="9.83301" y="0.5" width="17" height="39" stroke="white" stroke-opacity="0.3"/>
</svg>
