<svg width="30" height="21" viewBox="0 0 30 21" fill="none" xmlns="http://www.w3.org/2000/svg">
<g clip-path="url(#clip0_110_2555)">
<path d="M20.4956 10.6025C20.7176 10.388 20.7176 10.031 20.4956 9.809C20.2811 9.5945 19.9241 9.5945 19.7101 9.809L15.6866 13.8325L15.6866 0.5555C15.6861 0.246 15.4401 -2.28261e-07 15.1306 -2.4179e-07C14.8211 -2.55318e-07 14.5671 0.246 14.5671 0.5555L14.5671 13.8325L10.5511 9.809C10.3291 9.5945 9.97161 9.5945 9.75761 9.809C9.53561 10.031 9.53561 10.3885 9.75761 10.6025L14.7336 15.5785C14.9481 15.8005 15.3051 15.8005 15.5191 15.5785L20.4956 10.6025Z" fill="#00965E"/>
</g>
<rect x="29.5" y="7.50049" width="12.5" height="29" transform="rotate(90 29.5 7.50049)" stroke="#00965E" stroke-opacity="0.3"/>
<defs>
<clipPath id="clip0_110_2555">
<rect width="15.745" height="15.745" fill="white" transform="translate(23) rotate(90)"/>
</clipPath>
</defs>
</svg>
