<svg width="19" height="19" viewBox="0 0 19 19" fill="none" xmlns="http://www.w3.org/2000/svg">
<path d="M9.84231 16.1568C11.555 17.0188 13.5714 17.6404 15.9366 17.9063C16.5106 17.9709 16.9991 17.511 16.9991 16.9334V14.7808C16.9991 14.3219 16.6868 13.9219 16.2416 13.8106L13.5484 13.1373C13.2076 13.0521 12.8471 13.152 12.5987 13.4004L9.84231 16.1568ZM9.84231 16.1568C6.7266 14.5888 4.61616 12.225 3.24028 9.7588M3.24028 9.7588C1.92943 7.40926 1.28533 4.96674 1.07392 3.03084C1.01254 2.46884 1.46766 2 2.033 2H4.17931C4.65599 2 5.0664 2.33646 5.15989 2.80388L5.89415 6.47521C5.95972 6.80307 5.8571 7.14201 5.62068 7.37843L3.24028 9.7588Z" stroke="white" stroke-width="1.5"/>
<path d="M9.95312 5.09196C10.937 5.28321 11.8407 5.76573 12.5469 6.47693C13.2532 7.18812 13.7294 8.0952 13.9137 9.0803M10.0959 1.06714C12.0783 1.31055 13.9235 2.20652 15.3408 3.61392C16.758 5.02132 17.6669 6.86018 17.9241 8.8409" stroke="white" stroke-width="1.5" stroke-linecap="round" stroke-linejoin="round"/>
</svg>
