<svg width="20" height="20" viewBox="0 0 20 20" fill="none" xmlns="http://www.w3.org/2000/svg">
<path fill-rule="evenodd" clip-rule="evenodd" d="M19.7561 0.244078C20.0815 0.569514 20.0815 1.09715 19.7561 1.42259L15.8243 5.35433C15.8172 5.36166 15.8101 5.36883 15.8027 5.37585L5.35723 15.8214C5.35017 15.8287 5.343 15.8359 5.33573 15.8429L1.42271 19.7559C1.09728 20.0813 0.569636 20.0813 0.2442 19.7559C-0.0812371 19.4305 -0.0812371 18.9028 0.2442 18.5774L3.52874 15.2928C2.43046 14.2838 1.61826 13.1546 1.06113 12.2332C0.72316 11.6743 0.474372 11.1842 0.308965 10.8309C0.226167 10.6542 0.163994 10.5111 0.121756 10.4102C0.100631 10.3597 0.0844697 10.3198 0.0731892 10.2914L0.0599109 10.2576L0.0559921 10.2474L0.0547089 10.244L0.054236 10.2427C0.054236 10.2427 0.0538753 10.2418 0.833526 9.94758L0.0619538 9.63275L0.0622899 9.63192L0.0631625 9.62975L0.0657104 9.62358L0.0740236 9.60375C0.0809981 9.58717 0.0908447 9.56408 0.103583 9.53492C0.129054 9.47667 0.166121 9.39392 0.214944 9.29033C0.312528 9.08317 0.457446 8.79167 0.651037 8.44375C1.0372 7.74984 1.62244 6.82198 2.41932 5.89042C4.00555 4.03606 6.50797 2.08333 10.0002 2.08333C12.044 2.08333 13.7546 2.75461 15.1376 3.68401L18.5775 0.244078C18.903 -0.0813592 19.4306 -0.0813592 19.7561 0.244078ZM8.06012 10.7615L10.7616 8.05999C10.5258 7.96739 10.2691 7.91667 10.0002 7.91667C8.84949 7.91667 7.91679 8.84942 7.91679 10C7.91679 10.2689 7.96751 10.5257 8.06012 10.7615ZM11.9965 6.82515C11.4185 6.4611 10.7336 6.25 10.0002 6.25C7.92905 6.25 6.25013 7.92893 6.25013 10C6.25013 10.7334 6.46123 11.4183 6.82527 11.9963L4.70848 14.1132C3.73667 13.2327 3.00157 12.2212 2.48731 11.3708C2.18467 10.8703 1.96311 10.4332 1.81833 10.1241C1.79012 10.0638 1.76487 10.0086 1.74253 9.95867C1.82598 9.78367 1.94734 9.54175 2.10738 9.25417C2.45485 8.62983 2.97913 7.79996 3.68583 6.9738C5.10673 5.31272 7.18765 3.75 10.0002 3.75C11.5247 3.75 12.8292 4.20707 13.9322 4.88933L11.9965 6.82515Z" fill="#00965E"/>
<path d="M0.0619538 9.63281L-0.0615234 9.93615L0.0538753 10.2419L0.833525 9.94765C0.0616844 9.63348 0.0619538 9.63281 0.0619538 9.63281Z" fill="#00965E"/>
<path d="M17.1726 6.66381C17.5457 6.39426 18.0666 6.47813 18.3362 6.85116C18.8731 7.59411 19.27 8.28144 19.5336 8.78484C19.6657 9.03692 19.7649 9.24409 19.8321 9.39051C19.8656 9.46376 19.8913 9.52184 19.9091 9.56292C19.9179 9.58351 19.9248 9.59976 19.9297 9.61159L19.9356 9.62584L19.9376 9.63042L19.9382 9.63201L19.9386 9.63301L19.1668 9.94742L19.9462 10.2423L19.9459 10.2432L19.9451 10.2454L19.9426 10.2518L19.9347 10.272C19.9281 10.2889 19.9188 10.3124 19.9067 10.3421C19.8825 10.4015 19.8472 10.4857 19.8006 10.5911C19.7075 10.8018 19.5686 11.0982 19.3816 11.4518C19.0087 12.1573 18.4391 13.1006 17.652 14.0479C16.0822 15.9368 13.5777 17.9165 10.0001 17.9165C9.27289 17.9165 8.58606 17.8343 7.93977 17.6855C7.49125 17.5823 7.2113 17.1351 7.31449 16.6866C7.41767 16.2381 7.86492 15.9581 8.31344 16.0613C8.83822 16.182 9.39972 16.2498 10.0001 16.2498C12.8961 16.2498 14.9748 14.6617 16.3701 12.9827C17.0654 12.146 17.5737 11.3054 17.9081 10.6729C18.0624 10.3812 18.1785 10.1358 18.2578 9.95851C18.2058 9.84942 18.1391 9.71426 18.0572 9.55809C17.8222 9.10951 17.4661 8.49276 16.9853 7.82734C16.7157 7.45431 16.7996 6.93338 17.1726 6.66381Z" fill="#00965E"/>
<path d="M19.9464 10.2421C19.9464 10.2421 19.9467 10.2415 19.167 9.94723C19.9388 9.63306 19.9387 9.63281 19.9387 9.63281L20.0621 9.93573L19.9464 10.2421Z" fill="#00965E"/>
</svg>
