<svg width="18" height="24" viewBox="0 0 18 24" fill="none" xmlns="http://www.w3.org/2000/svg">
<g clip-path="url(#clip0_70_2353)">
<path d="M9.34913 17.0001C9.06005 17.0001 8.82544 16.6641 8.82544 16.2501V0.75C8.82544 0.335999 9.06005 0 9.34913 0C9.63821 0 9.87282 0.335999 9.87282 0.75V16.2501C9.87282 16.6641 9.63821 17.0001 9.34913 17.0001Z" fill="#282828" fill-opacity="0.2"/>
<path d="M9.34913 17.0001C9.21501 17.0001 9.08102 16.927 8.97899 16.78L6.18602 12.78C5.98145 12.4871 5.98145 12.0121 6.18602 11.7189C6.39058 11.426 6.72224 11.426 6.92693 11.7189L9.34977 15.189L11.7727 11.7189C11.9773 11.426 12.3091 11.426 12.5136 11.7189C12.7182 12.0121 12.7182 12.4871 12.5136 12.78L9.72055 16.78C9.61724 16.927 9.48325 17.0001 9.34913 17.0001Z" fill="#282828" fill-opacity="0.2"/>
<path d="M15.8079 24H2.89032C1.83105 24 0.970078 22.767 0.970078 21.2499V16.7499C0.970078 16.3359 1.20469 15.9999 1.49377 15.9999C1.78285 15.9999 2.01746 16.3359 2.01746 16.7499V21.2499C2.01746 21.939 2.4092 22.5 2.89032 22.5H15.8079C16.2891 22.5 16.6808 21.939 16.6808 21.2499V16.7499C16.6808 16.3359 16.9154 15.9999 17.2045 15.9999C17.4936 15.9999 17.7282 16.3359 17.7282 16.7499V21.2499C17.7282 22.767 16.8672 24 15.8079 24Z" fill="#282828" fill-opacity="0.2"/>
</g>
<defs>
<clipPath id="clip0_70_2353">
<rect width="16.7581" height="24" fill="white" transform="translate(0.970078)"/>
</clipPath>
</defs>
</svg>
