<svg width="20" height="16" viewBox="0 0 20 16" fill="none" xmlns="http://www.w3.org/2000/svg">
<path d="M17.5 0.5H2.5C1.11937 0.5 0 1.61937 0 3V13C0 14.3806 1.11937 15.5 2.5 15.5H17.5C18.8806 15.5 20 14.3806 20 13V3C20 1.61937 18.8806 0.5 17.5 0.5ZM13.385 7.17113L18.6768 2.63621C18.7134 2.7534 18.75 2.87059 18.75 3V13C18.75 13.0867 18.717 13.1636 18.7 13.2454L13.385 7.17113ZM17.5 1.75C17.583 1.75 17.6562 1.78176 17.7344 1.79762L10 8.42727L2.26562 1.79762C2.34375 1.78176 2.41699 1.75 2.5 1.75H17.5ZM1.29945 13.2441C1.28234 13.1623 1.25 13.0867 1.25 13V3C1.25 2.87059 1.28723 2.7534 1.32387 2.63621L6.61379 7.16992L1.29945 13.2441ZM2.5 14.25C2.37367 14.25 2.25891 14.2134 2.14355 14.178L7.56348 7.9841L9.59352 9.72359C9.71008 9.82496 9.85535 9.875 10 9.875C10.1446 9.875 10.2899 9.82496 10.4065 9.72363L12.4365 7.98414L17.8564 14.178C17.7417 14.2134 17.627 14.25 17.5 14.25H2.5Z" fill="#00965E"/>
</svg>
