<svg width="40" height="28" viewBox="0 0 40 28" fill="none" xmlns="http://www.w3.org/2000/svg">
<path d="M27.3288 14.4697C27.6248 14.1837 27.6248 13.7077 27.3288 13.4117C27.0428 13.1257 26.5668 13.1257 26.2814 13.4117L20.9168 18.7763L20.9168 1.07367C20.9161 0.661007 20.5881 0.333008 20.1754 0.333007C19.7628 0.333007 19.4241 0.661007 19.4241 1.07367L19.4241 18.7763L14.0694 13.4117C13.7734 13.1257 13.2968 13.1257 13.0114 13.4117C12.7154 13.7077 12.7154 14.1843 13.0114 14.4697L19.6461 21.1043C19.9321 21.4003 20.4081 21.4003 20.6934 21.1043L27.3288 14.4697Z" fill="white"/>
<rect x="39.5" y="10.167" width="17" height="39" transform="rotate(90 39.5 10.167)" stroke="white" stroke-opacity="0.3"/>
</svg>
