<svg width="16" height="16" viewBox="0 0 16 16" fill="none" xmlns="http://www.w3.org/2000/svg">
<path d="M10 10.6665V9.33315C10.3 9.18449 11.158 8.16316 11.248 7.36516C11.484 7.34716 11.8547 7.13049 11.964 6.27516C12.0227 5.81582 11.7893 5.55782 11.648 5.47649C11.648 5.47649 12 4.80782 12 4.00049C12 2.38182 11.3647 1.00049 10 1.00049C10 1.00049 9.526 0.000488281 8 0.000488281C5.172 0.000488281 4 1.81449 4 4.00049C4 4.73649 4.352 5.47649 4.352 5.47649C4.21067 5.55782 3.97733 5.81649 4.036 6.27516C4.14533 7.13049 4.516 7.34716 4.752 7.36516C4.842 8.16316 5.7 9.18449 6 9.33315V10.6665C5.33333 12.6665 0 11.3332 0 15.9998H16C16 11.3332 10.6667 12.6665 10 10.6665Z" fill="white"/>
</svg>
