<svg width="18" height="18" viewBox="0 0 18 18" fill="none" xmlns="http://www.w3.org/2000/svg">
<path d="M16.2215 12.2681L13.6815 11.9781C13.0715 11.9081 12.4715 12.1181 12.0415 12.5481L10.2015 14.3881C7.37152 12.9481 5.05156 10.6381 3.61156 7.79808L5.46156 5.94807C5.89156 5.51807 6.10156 4.91807 6.03156 4.30807L5.74156 1.78807C5.62156 0.778067 4.77156 0.0180664 3.75156 0.0180664H2.02156C0.891557 0.0180664 -0.0484432 0.958067 0.0215568 2.08807C0.551557 10.6281 7.38152 17.4481 15.9115 17.9781C17.0415 18.0481 17.9815 17.1081 17.9815 15.9781V14.2481C17.9915 13.2381 17.2315 12.3881 16.2215 12.2681Z" fill="#00965E"/>
</svg>
