<svg width="30" height="30" viewBox="0 0 30 30" fill="none" xmlns="http://www.w3.org/2000/svg">
<g clip-path="url(#clip0_378_729)">
<path fill-rule="evenodd" clip-rule="evenodd" d="M30 15C30 23.2843 23.2843 30 15 30C6.71575 30 0 23.2843 0 15C0 6.71575 6.71575 0 15 0C23.2843 0 30 6.71575 30 15ZM15.4908 23.3453H15.4944C20.4122 23.3433 24.4119 19.3427 24.4138 14.426C24.4148 12.0427 23.4879 9.80178 21.8039 8.11591C20.1199 6.42991 17.8804 5.50103 15.4943 5.5C10.578 5.5 6.57675 9.50103 6.57475 14.4189C6.57413 15.9909 6.98481 17.5253 7.76538 18.878L6.5 23.5L11.2283 22.2597C12.5311 22.9703 13.9979 23.3448 15.4908 23.3453ZM11.7181 20.8056L11.4474 20.6449L8.64156 21.381L9.3905 18.6453L9.21419 18.3648C8.47213 17.1845 8.08019 15.8202 8.08075 14.4194C8.08238 10.332 11.4081 7.00653 15.4973 7.00653C17.4775 7.00722 19.3389 7.77928 20.7386 9.18059C22.1383 10.5819 22.9086 12.4445 22.9078 14.4254C22.9062 18.5132 19.5805 21.839 15.4944 21.839H15.4914C14.1611 21.8385 12.8564 21.481 11.7181 20.8056ZM19.988 16.547C19.9432 16.4722 19.8382 16.4214 19.6828 16.3463C19.6451 16.3281 19.6044 16.3084 19.5609 16.2866C19.338 16.1751 18.2423 15.636 18.0379 15.5615C17.8337 15.4872 17.6851 15.45 17.5365 15.6731C17.388 15.8962 16.9609 16.3982 16.8309 16.547C16.7008 16.6957 16.5708 16.7143 16.3481 16.6027C16.3116 16.5845 16.262 16.563 16.2008 16.5364L16.2006 16.5363C15.8868 16.4002 15.2679 16.1317 14.5558 15.4965C13.8933 14.9056 13.4459 14.1758 13.3159 13.9527C13.1859 13.7295 13.3021 13.609 13.4137 13.4978C13.4801 13.4317 13.5563 13.3389 13.6326 13.246L13.6337 13.2446C13.6723 13.1977 13.7108 13.1508 13.7479 13.1073C13.8425 12.997 13.8835 12.9133 13.9392 12.7998L13.9395 12.7991L13.9426 12.7928C13.9515 12.7746 13.9608 12.7556 13.9708 12.7356C14.0451 12.5868 14.008 12.4567 13.9523 12.3452C13.915 12.2705 13.7031 11.7547 13.5113 11.2878C13.4165 11.0569 13.3266 10.838 13.2651 10.6903C13.1054 10.3067 12.9434 10.3076 12.8136 10.3083C12.7964 10.3085 12.7797 10.3085 12.7637 10.3077C12.6338 10.3012 12.4851 10.2998 12.3365 10.2998C12.1879 10.2998 11.9465 10.3557 11.7422 10.5788C11.7291 10.593 11.7145 10.6087 11.6986 10.6257C11.4664 10.8733 10.9622 11.4114 10.9622 12.438C10.9622 13.5291 11.7523 14.5834 11.8704 14.741L11.8704 14.7411L11.8722 14.7435C11.8795 14.7532 11.8926 14.772 11.9113 14.7988L11.9114 14.799C12.1786 15.1821 13.5904 17.2067 15.6794 18.1087C16.2112 18.3383 16.6263 18.4755 16.9499 18.5782C17.4838 18.7478 17.9698 18.7238 18.3537 18.6665C18.7819 18.6025 19.6723 18.1273 19.8581 17.6068C20.0437 17.0861 20.0437 16.6399 19.988 16.547Z" fill="#000"/>
</g>
<defs>
<clipPath id="clip0_378_729">
<rect width="30" height="30" fill="white"/>
</clipPath>
</defs>
</svg>
